#define firefox_width 10
#define firefox_height 10
static unsigned char firefox_bits[] = {
   0x00, 0x00, 0x00, 0x00, 0x40, 0x00, 0xcc, 0x00, 0x8c, 0x00, 0x84, 0x00,
   0x8c, 0x00, 0xfc, 0x00, 0x30, 0x00, 0x00, 0x00 };
